<?xml version="1.0" standalone="no"?>
<!DOCTYPE svg PUBLIC "-//W3C//DTD SVG 20010904//EN"
 "http://www.w3.org/TR/2001/REC-SVG-20010904/DTD/svg10.dtd">
<svg version="1.0" xmlns="http://www.w3.org/2000/svg"
 width="128.000000pt" height="80.000000pt" viewBox="0 0 128.000000 80.000000"
 preserveAspectRatio="xMidYMid meet">
<metadata>
Created by potrace 1.16, written by Peter Selinger 2001-2019
</metadata>
<g transform="translate(0.000000,80.000000) scale(0.017827,-0.018100)"
fill="#000000" stroke="none">
<path d="M2446 3402 c-214 -461 -399 -853 -412 -872 -13 -19 -37 -65 -53 -102
l-31 -67 28 -60 c15 -33 30 -60 34 -61 9 0 118 214 118 231 0 6 164 331 365
722 l366 712 -11 165 c-6 90 -12 165 -13 166 -1 1 -177 -374 -391 -834z"/>
<path d="M2970 3564 c-119 -52 -176 -173 -136 -287 22 -60 59 -101 189 -206
175 -140 217 -194 217 -275 0 -102 -80 -176 -190 -176 -80 0 -147 44 -197 127
l-19 32 -32 -21 c-18 -11 -32 -24 -32 -28 0 -4 15 -30 33 -56 44 -64 124 -120
194 -135 140 -32 288 58 329 199 37 128 -27 233 -246 400 -63 48 -124 102
-136 120 -46 67 -37 164 18 205 33 24 114 33 161 18 19 -7 55 -33 80 -60 l45
-48 33 28 34 28 -50 52 c-88 90 -203 123 -295 83z"/>
<path d="M6568 3374 l-3 -207 -54 46 c-90 77 -130 92 -246 92 -95 0 -103 -2
-162 -34 -77 -41 -146 -113 -181 -189 -24 -50 -27 -69 -27 -157 0 -93 2 -105
32 -166 39 -80 111 -150 191 -187 49 -23 70 -27 147 -27 76 0 99 4 146 26 31
15 74 43 96 63 22 20 46 36 52 36 7 0 11 -21 11 -55 l0 -55 45 0 45 0 0 510 0
510 -45 0 -45 0 -2 -206z m-173 -173 c65 -29 119 -84 150 -152 24 -55 27 -70
23 -143 -7 -122 -55 -198 -163 -254 -68 -36 -188 -38 -252 -4 -104 55 -163
142 -171 251 -5 81 8 134 51 197 79 119 232 163 362 105z"/>
<path d="M3717 3295 c-44 -17 -86 -44 -142 -94 l-40 -36 -5 65 -5 65 -40 0
-40 0 -3 -507 -2 -508 45 0 45 0 0 195 c0 138 3 195 11 195 6 0 30 -16 52 -36
22 -20 65 -48 96 -63 47 -22 70 -26 146 -26 76 0 99 4 146 26 297 140 304 557
11 701 -57 28 -78 33 -152 35 -55 2 -98 -3 -123 -12z m216 -89 c64 -27 112
-73 147 -137 32 -58 35 -71 35 -144 -1 -94 -25 -155 -87 -217 -143 -143 -379
-104 -468 76 -31 62 -32 70 -28 153 5 97 18 130 75 194 40 44 98 78 153 90 45
10 133 2 173 -15z"/>
<path d="M4521 3294 c-101 -36 -174 -106 -225 -213 -27 -59 -31 -76 -31 -156
0 -80 4 -97 32 -157 40 -85 110 -160 182 -195 50 -25 67 -28 161 -28 94 0 111
3 165 28 33 15 79 47 103 70 42 40 88 105 81 111 -2 2 -17 10 -34 19 -29 15
-29 15 -62 -31 -36 -51 -98 -97 -152 -112 -60 -17 -181 -12 -227 9 -86 39
-149 129 -161 231 l-6 50 338 0 338 0 -6 56 c-13 122 -100 244 -214 301 -72
35 -210 43 -282 17z m235 -89 c59 -24 111 -72 138 -127 14 -29 26 -58 26 -65
0 -10 -56 -13 -275 -13 -307 0 -293 -4 -255 69 40 80 102 130 185 152 41 11
137 3 181 -16z"/>
<path d="M5338 3297 c-141 -53 -232 -164 -260 -317 -26 -138 51 -308 173 -386
99 -62 255 -71 364 -21 33 16 79 47 103 70 42 41 88 105 81 111 -15 13 -69 35
-69 28 0 -27 -78 -104 -133 -132 -53 -26 -70 -30 -146 -30 -101 0 -146 17
-205 76 -46 47 -75 106 -83 174 l-6 50 338 0 338 0 -6 56 c-13 123 -104 251
-215 302 -69 32 -212 41 -274 19z m229 -92 c77 -32 140 -103 158 -177 l7 -28
-276 0 c-305 0 -293 -3 -260 63 41 80 109 138 187 158 43 11 139 3 184 -16z"/>
<path d="M3280 2130 l0 -140 -65 0 -65 0 0 -35 0 -35 65 0 65 0 0 -335 0 -335
40 0 40 0 0 335 0 335 80 0 80 0 0 35 0 35 -80 0 -80 0 0 140 0 140 -40 0 -40
0 0 -140z"/>
<path d="M1887 2225 c-9 -20 -17 -40 -17 -46 0 -23 -164 -359 -175 -359 -7 0
-20 9 -30 20 -15 16 -31 20 -84 20 l-65 0 67 -68 c37 -37 67 -73 67 -79 0 -6
-47 -111 -105 -233 -58 -123 -105 -225 -105 -227 0 -2 21 -3 47 -1 l46 3 91
193 c49 105 95 192 101 192 6 0 51 -41 100 -90 l90 -90 91 91 c51 50 97 90
103 88 7 -3 53 -91 103 -197 l91 -192 43 0 c24 0 44 2 44 4 0 2 -45 99 -100
216 -54 116 -102 221 -106 232 -5 16 9 35 62 89 l68 69 -66 0 c-46 0 -69 -4
-78 -15 -29 -35 -46 -17 -108 116 -34 72 -62 137 -62 145 0 25 -70 154 -83
154 -7 0 -21 -16 -30 -35z m106 -336 l65 -137 -74 -73 -74 -73 -65 64 c-36 35
-65 69 -65 75 0 21 134 295 141 288 4 -5 36 -69 72 -144z"/>
<path d="M3792 1991 c-76 -28 -145 -83 -191 -152 -52 -78 -66 -125 -66 -224 1
-68 5 -90 32 -147 42 -89 100 -151 182 -191 62 -30 72 -32 171 -32 98 0 109 2
165 32 139 72 224 221 213 374 -10 134 -104 271 -226 327 -78 35 -203 41 -280
13z m234 -90 c59 -27 121 -86 152 -145 35 -68 38 -187 6 -257 -30 -64 -79
-116 -138 -147 -69 -35 -189 -38 -253 -4 -66 34 -110 78 -140 140 -23 47 -28
70 -27 132 0 123 60 221 167 274 65 33 170 36 233 7z"/>
<path d="M4611 1979 c-34 -17 -74 -46 -89 -65 -39 -49 -52 -44 -52 21 l0 55
-45 0 -45 0 2 -367 3 -368 40 0 40 0 5 240 c5 198 9 247 23 279 47 107 132
162 238 154 67 -5 103 -26 134 -79 18 -31 20 -57 25 -314 l5 -280 41 -3 42 -3
5 238 c2 140 9 253 16 275 17 53 69 118 116 142 56 30 172 30 211 0 73 -54 82
-102 83 -446 l1 -208 40 0 40 0 0 255 c0 282 -7 333 -53 403 -95 141 -318 132
-423 -19 -14 -21 -34 -39 -43 -39 -9 0 -25 18 -36 41 -53 112 -198 151 -324
88z"/>
<path d="M5833 1992 c-101 -36 -180 -108 -231 -212 -24 -49 -27 -66 -27 -155
0 -88 3 -107 27 -157 35 -76 104 -148 181 -189 59 -32 67 -34 162 -34 117 1
167 18 238 85 24 22 49 40 55 40 6 0 12 -25 14 -57 l3 -58 40 0 40 0 3 368 2
367 -44 0 -45 0 -3 -62 -3 -61 -48 42 c-80 69 -140 94 -232 98 -60 3 -93 -1
-132 -15z m254 -98 c63 -30 126 -99 147 -161 9 -26 16 -79 16 -118 0 -175
-137 -304 -310 -292 -110 7 -199 66 -247 165 -24 48 -28 69 -28 137 0 67 5 88
27 131 80 152 244 209 395 138z"/>
<path d="M6708 1991 c-171 -56 -280 -200 -280 -371 -1 -102 27 -173 99 -250
80 -87 158 -123 278 -128 142 -6 228 24 327 115 l47 43 -36 25 -37 24 -44 -40
c-70 -65 -121 -84 -227 -84 -70 0 -100 5 -136 21 -113 52 -180 156 -178 279 0
39 6 84 12 102 51 136 204 221 355 195 75 -12 134 -41 184 -89 l36 -36 36 22
36 23 -46 48 c-69 73 -162 112 -278 117 -70 2 -104 -1 -148 -16z"/>
<path d="M2432 1743 c5 -276 13 -319 71 -394 17 -23 56 -56 86 -72 47 -26 68
-32 142 -35 112 -6 175 14 240 75 88 82 109 175 109 491 l0 182 -45 0 -45 0 0
-212 c-1 -320 -13 -371 -106 -429 -50 -31 -167 -38 -228 -15 -54 21 -111 81
-125 133 -6 22 -11 140 -11 281 l0 242 -46 0 -46 0 4 -247z"/>
</g>
</svg>
